<svg width="24" height="24" viewBox="0 0 24 24" fill="none" xmlns="http://www.w3.org/2000/svg">
<path fill-rule="evenodd" clip-rule="evenodd" d="M17 10C17 11.0609 16.5786 12.0783 15.8284 12.8284C15.0783 13.5786 14.0609 14 13 14C11.9391 14 10.9217 13.5786 10.1716 12.8284C9.42143 12.0783 9 11.0609 9 10C9 8.93913 9.42143 7.92172 10.1716 7.17157C10.9217 6.42143 11.9391 6 13 6C14.0609 6 15.0783 6.42143 15.8284 7.17157C16.5786 7.92172 17 8.93913 17 10ZM15 10C15 10.5304 14.7893 11.0391 14.4142 11.4142C14.0391 11.7893 13.5304 12 13 12C12.4696 12 11.9609 11.7893 11.5858 11.4142C11.2107 11.0391 11 10.5304 11 10C11 9.46957 11.2107 8.96086 11.5858 8.58579C11.9609 8.21071 12.4696 8 13 8C13.5304 8 14.0391 8.21071 14.4142 8.58579C14.7893 8.96086 15 9.46957 15 10Z" fill="white"/>
<path fill-rule="evenodd" clip-rule="evenodd" d="M13 2C6.925 2 2 6.925 2 13C2 19.075 6.925 24 13 24C19.075 24 24 19.075 24 13C24 6.925 19.075 2 13 2ZM4 13C4 15.09 4.713 17.014 5.908 18.542C6.74723 17.4399 7.8299 16.5467 9.07143 15.9323C10.313 15.3179 11.6797 14.9988 13.065 15C14.4323 14.9987 15.7819 15.3095 17.0109 15.9088C18.2399 16.508 19.316 17.3799 20.157 18.458C21.0234 17.3216 21.6068 15.9952 21.8589 14.5886C22.111 13.182 22.0244 11.7355 21.6065 10.369C21.1886 9.00243 20.4512 7.75505 19.4555 6.73004C18.4598 5.70503 17.2343 4.93186 15.8804 4.47451C14.5265 4.01716 13.0832 3.88877 11.6699 4.09997C10.2565 4.31117 8.91379 4.85589 7.75277 5.68905C6.59175 6.52222 5.64581 7.61987 4.99323 8.8912C4.34065 10.1625 4.00018 11.571 4 13ZM13 22C10.9339 22.0031 8.93027 21.2923 7.328 19.988C7.97293 19.0647 8.83134 18.3109 9.83019 17.7907C10.829 17.2705 11.9388 16.9992 13.065 17C14.1772 16.9991 15.2735 17.2636 16.2629 17.7714C17.2524 18.2793 18.1064 19.0159 18.754 19.92C17.1393 21.2667 15.1026 22.0029 13 22Z" fill="white"/>
</svg>
