<svg width="14" height="16" viewBox="0 0 14 16" fill="none" xmlns="http://www.w3.org/2000/svg">
<path d="M8.66901 15.719C8.03251 15.719 7.38701 15.65 6.80301 15.52C5.80651 15.298 3.71001 13.6985 3.26651 13.239C2.86551 12.8235 1.79151 11.2285 1.63401 9.931C1.56501 9.366 1.99851 7.6825 2.52901 7.0835C2.63351 6.966 2.74301 6.887 2.85501 6.848C2.83248 6.79653 2.80964 6.7452 2.78651 6.694C2.44151 5.943 1.93051 5.0755 1.47951 4.3095C0.716008 3.0125 0.431508 2.4945 0.479508 2.1995C0.560008 1.6995 0.970008 1.1225 1.51601 1.0215L1.61251 1.002C1.75327 0.968068 1.89725 0.949295 2.04201 0.945999C2.51851 0.945999 2.95501 1.218 3.41651 1.8015C3.81601 2.307 4.46301 3.7025 5.00751 4.965C4.98251 4.647 4.99201 4.3815 5.05901 4.2265C5.32901 3.6 6.08201 3.3535 6.31151 3.339L6.36801 3.3375C6.51351 3.3375 7.25801 3.374 7.60301 4.098C7.65801 4.214 7.71051 4.339 7.75901 4.4655C7.82101 4.2505 7.90901 4.063 8.03451 3.956C8.42051 3.628 8.94901 3.458 9.30851 3.559C9.69501 3.6675 10.0205 4.0765 10.138 4.603C10.1885 4.489 10.2495 4.3965 10.3215 4.3425C10.671 4.0805 11.279 4.0525 11.664 4.3195C12.134 4.6455 13.215 6.5985 13.405 8.3065C13.5605 9.7105 13.736 12.2195 13.1565 13.2535C12.5545 14.326 11.323 15.159 10.4335 15.4785C10.0005 15.633 9.37401 15.719 8.66901 15.719ZM3.03401 7.329C2.70201 7.362 2.05151 9.222 2.13001 9.8695C2.27101 11.0335 3.27051 12.5225 3.62651 12.8915C4.05001 13.3305 6.05501 14.8405 6.91101 15.031C7.46051 15.1535 8.06751 15.2185 8.66851 15.2185C9.30801 15.2185 9.88901 15.141 10.263 15.006C10.9355 14.7645 12.1435 14.033 12.719 13.0065C13.093 12.341 13.1615 10.647 12.907 8.3605C12.7265 6.7315 11.673 4.9335 11.3785 4.7285C11.142 4.565 10.748 4.645 10.6205 4.741C10.55 4.8215 10.4455 5.2925 10.405 5.741L10.2795 7.1245L9.91501 5.784C9.91501 5.784 9.75301 5.189 9.65101 4.7175C9.56401 4.319 9.34201 4.086 9.17251 4.039C8.98601 3.986 8.61151 4.1195 8.35801 4.3355C8.22001 4.453 8.11751 5.132 8.11301 5.667L8.09401 7.7455L7.61951 5.7215C7.61751 5.7125 7.41901 4.87 7.15151 4.3115C6.93551 3.8585 6.46051 3.8355 6.36801 3.8355C6.22251 3.8455 5.69001 4.0245 5.51801 4.423C5.39801 4.7025 5.67001 6.161 5.99051 7.3515L5.51651 7.5075C5.50001 7.464 3.75751 3.0365 3.02501 2.11C2.55401 1.514 2.23901 1.445 2.04301 1.445C1.93301 1.445 1.82701 1.467 1.71551 1.4905L1.60801 1.512C1.32701 1.564 1.03151 1.9225 0.973009 2.279C0.977509 2.47 1.49501 3.349 1.91101 4.0555C2.36751 4.8315 2.88551 5.711 3.24101 6.4845C3.33151 6.681 3.41551 6.8855 3.49301 7.0945L3.49401 7.098C4.03651 7.8455 4.30651 10.304 4.33601 10.5865L3.83951 10.644C3.83751 10.6265 3.60851 8.8755 3.05351 7.3475C3.04744 7.34089 3.04092 7.33471 3.03401 7.329Z" fill="black"/>
</svg>
