<svg width="12" height="14" viewBox="0 0 12 14" fill="none" xmlns="http://www.w3.org/2000/svg">
<path d="M3.48096 7.247C3.37146 7.847 2.93746 10.644 2.80896 11.4345C2.79946 11.491 2.77746 11.5125 2.71496 11.5125H0.383961C0.329265 11.5129 0.275137 11.5014 0.225286 11.4789C0.175434 11.4564 0.131038 11.4234 0.095137 11.3821C0.0592364 11.3408 0.0326807 11.2923 0.0172888 11.2398C0.00189686 11.1873 -0.00196731 11.1321 0.00596102 11.078L1.83746 -0.544002C1.86269 -0.691563 1.93923 -0.825468 2.05359 -0.922076C2.16795 -1.01869 2.31276 -1.07178 2.46246 -1.072C7.22196 -1.072 7.62196 -1.1875 8.83746 -0.715502C10.7155 0.0124981 10.8875 1.769 10.2125 3.669C9.54046 5.6255 7.94696 6.466 5.83446 6.491C4.47846 6.513 3.66246 6.272 3.48146 7.247H3.48096ZM11.1595 2.75C11.103 2.7095 11.0815 2.6935 11.0655 2.7905C10.9998 3.1468 10.9079 3.49776 10.7905 3.8405C9.54346 7.397 6.08746 7.0875 4.39996 7.0875C4.20946 7.0875 4.08446 7.1905 4.05946 7.381C3.35346 11.7685 3.21246 12.684 3.21246 12.684C3.18096 12.906 3.32196 13.087 3.54346 13.087H5.52796C5.79696 13.087 6.01846 12.89 6.07196 12.6215C6.09396 12.453 6.03746 12.812 6.52196 9.7685C6.66596 9.081 6.96896 9.153 7.43746 9.153C9.65646 9.153 11.3875 8.253 11.903 5.6435C12.106 4.556 12.047 3.412 11.1595 2.7495V2.75Z" fill="white"/>
</svg>
